G04 EAGLE Gerber RS-274X export*
G75*
%MOMM*%
%FSLAX34Y34*%
%LPD*%
%INTop Copper*%
%IPPOS*%
%AMOC8*
5,1,8,0,0,1.08239X$1,22.5*%
G01*
%ADD10C,1.778000*%
%ADD11C,2.100000*%
%ADD12R,0.800000X0.800000*%
%ADD13R,0.949959X1.031241*%
%ADD14R,1.524000X1.524000*%
%ADD15P,1.649562X8X202.500000*%
%ADD16C,1.108000*%
%ADD17C,2.300000*%
%ADD18R,1.108000X1.108000*%
%ADD19C,0.152400*%
%ADD20C,0.756400*%
%ADD21C,0.254000*%


D10*
X-1089660Y-2463800D03*
X-1140460Y-2463800D03*
X-1115060Y-2463800D03*
X-1064260Y-2463800D03*
D11*
X-1292460Y-2335800D03*
X-1242460Y-2335800D03*
X-1292460Y-2210800D03*
X-1242460Y-2210800D03*
D12*
X-833000Y-2565400D03*
X-818000Y-2565400D03*
D13*
X-1074039Y-2359660D03*
X-1090041Y-2359660D03*
D12*
X-833000Y-2463800D03*
X-818000Y-2463800D03*
X-833000Y-2514600D03*
X-818000Y-2514600D03*
D13*
X-833501Y-2489200D03*
X-817499Y-2489200D03*
X-833501Y-2540000D03*
X-817499Y-2540000D03*
X-833501Y-2590800D03*
X-817499Y-2590800D03*
X-1189101Y-2336800D03*
X-1173099Y-2336800D03*
X-1096899Y-2501900D03*
X-1112901Y-2501900D03*
X-1151001Y-2501900D03*
X-1134999Y-2501900D03*
D14*
X-859200Y-2657100D03*
D15*
X-859200Y-2631700D03*
X-884600Y-2657100D03*
X-884600Y-2631700D03*
X-910000Y-2657100D03*
X-910000Y-2631700D03*
X-935400Y-2657100D03*
X-935400Y-2631700D03*
X-960800Y-2657100D03*
X-960800Y-2631700D03*
X-986200Y-2657100D03*
X-986200Y-2631700D03*
X-1011600Y-2657100D03*
X-1011600Y-2631700D03*
X-1037000Y-2657100D03*
X-1037000Y-2631700D03*
X-1062400Y-2657100D03*
X-1062400Y-2631700D03*
X-1087800Y-2657100D03*
X-1087800Y-2631700D03*
X-1113200Y-2657100D03*
X-1113200Y-2631700D03*
X-1138600Y-2657100D03*
X-1138600Y-2631700D03*
X-1164000Y-2657100D03*
X-1164000Y-2631700D03*
X-1189400Y-2657100D03*
X-1189400Y-2631700D03*
X-1214800Y-2657100D03*
X-1214800Y-2631700D03*
X-1240200Y-2657100D03*
X-1240200Y-2631700D03*
X-1265600Y-2657100D03*
X-1265600Y-2631700D03*
X-1291000Y-2657100D03*
X-1291000Y-2631700D03*
D14*
X-859200Y-2403100D03*
D15*
X-859200Y-2377700D03*
X-884600Y-2403100D03*
X-884600Y-2377700D03*
X-910000Y-2403100D03*
X-910000Y-2377700D03*
X-935400Y-2403100D03*
X-935400Y-2377700D03*
X-960800Y-2403100D03*
X-960800Y-2377700D03*
X-986200Y-2403100D03*
X-986200Y-2377700D03*
X-1011600Y-2403100D03*
X-1011600Y-2377700D03*
X-1037000Y-2403100D03*
X-1037000Y-2377700D03*
X-1062400Y-2403100D03*
X-1062400Y-2377700D03*
X-1087800Y-2403100D03*
X-1087800Y-2377700D03*
X-1113200Y-2403100D03*
X-1113200Y-2377700D03*
X-1138600Y-2403100D03*
X-1138600Y-2377700D03*
X-1164000Y-2403100D03*
X-1164000Y-2377700D03*
X-1189400Y-2403100D03*
X-1189400Y-2377700D03*
X-1214800Y-2403100D03*
X-1214800Y-2377700D03*
X-1240200Y-2403100D03*
X-1240200Y-2377700D03*
X-1265600Y-2403100D03*
X-1265600Y-2377700D03*
X-1291000Y-2403100D03*
X-1291000Y-2377700D03*
D16*
X-901700Y-2349500D03*
X-921700Y-2349500D03*
X-941700Y-2349500D03*
X-961700Y-2349500D03*
D17*
X-871000Y-2322400D03*
X-1002400Y-2322400D03*
D18*
X-1153160Y-2336800D03*
X-1089660Y-2336800D03*
D19*
X-1134999Y-2577299D02*
X-1189400Y-2631700D01*
X-1134999Y-2577299D02*
X-1134999Y-2501900D01*
X-1140460Y-2496439D02*
X-1140460Y-2463800D01*
X-1140460Y-2496439D02*
X-1134999Y-2501900D01*
X-1112901Y-2580601D02*
X-1164000Y-2631700D01*
X-1112901Y-2580601D02*
X-1112901Y-2501900D01*
X-1112901Y-2465959D02*
X-1115060Y-2463800D01*
X-1112901Y-2465959D02*
X-1112901Y-2501900D01*
X-884600Y-2377700D02*
X-884600Y-2355532D01*
X-898458Y-2341674D01*
X-944942Y-2341674D01*
X-953794Y-2350526D01*
X-953794Y-2360049D01*
X-1074039Y-2359660D01*
X-884600Y-2403100D02*
X-862355Y-2425345D01*
X-862355Y-2511146D01*
X-833501Y-2540000D01*
X-817499Y-2515101D02*
X-818000Y-2514600D01*
X-817499Y-2515101D02*
X-817499Y-2540000D01*
X-859200Y-2463501D02*
X-859200Y-2403100D01*
X-859200Y-2463501D02*
X-833501Y-2489200D01*
X-817499Y-2464301D02*
X-818000Y-2463800D01*
X-817499Y-2464301D02*
X-817499Y-2489200D01*
X-1255694Y-2667006D02*
X-1265600Y-2657100D01*
X-1255694Y-2667006D02*
X-850633Y-2667006D01*
X-833501Y-2649874D01*
X-833501Y-2590800D01*
X-817499Y-2565901D02*
X-818000Y-2565400D01*
X-817499Y-2565901D02*
X-817499Y-2590800D01*
D20*
X-833120Y-2451100D03*
D21*
X-833000Y-2463800D01*
D20*
X-833120Y-2552700D03*
X-833120Y-2501900D03*
D21*
X-833120Y-2514600D01*
D19*
X-833120Y-2565280D02*
X-833000Y-2565400D01*
X-833120Y-2565280D02*
X-833120Y-2552700D01*
D20*
X-1089660Y-2489200D03*
D19*
X-1089660Y-2463800D01*
D20*
X-962660Y-2324100D03*
D19*
X-962660Y-2349500D01*
D20*
X-1041400Y-2425700D03*
D19*
X-1041400Y-2407920D01*
X-1036320Y-2402840D01*
D20*
X-1153160Y-2359660D03*
X-1257300Y-2362200D03*
D19*
X-1257300Y-2336800D01*
X-1153160Y-2336800D02*
X-1153160Y-2359660D01*
X-896620Y-2616200D02*
X-896620Y-2654300D01*
X-899420Y-2657100D02*
X-910000Y-2657100D01*
X-899420Y-2657100D02*
X-896620Y-2654300D01*
X-910000Y-2657100D02*
X-935400Y-2657100D01*
X-901700Y-2362200D02*
X-901700Y-2349500D01*
X-901700Y-2362200D02*
X-896620Y-2367280D01*
X-896620Y-2430780D01*
X-909320Y-2443480D01*
X-909320Y-2603500D01*
X-896620Y-2616200D01*
X-921700Y-2632009D02*
X-921700Y-2349500D01*
X-921700Y-2632009D02*
X-936379Y-2646688D01*
X-950388Y-2646688D01*
X-960800Y-2657100D01*
X-948100Y-2355900D02*
X-941700Y-2349500D01*
X-948100Y-2355900D02*
X-948100Y-2633009D01*
X-958731Y-2643640D01*
X-972740Y-2643640D01*
X-986200Y-2657100D01*
X-1090041Y-2359660D02*
X-1089660Y-2359279D01*
X-1089660Y-2336800D01*
X-1151636Y-2501265D02*
X-1151001Y-2501900D01*
X-1173099Y-2336800D02*
X-1173480Y-2336419D01*
D20*
X-1066800Y-2489200D03*
D19*
X-1066700Y-2489198D01*
X-1066601Y-2489192D01*
X-1066501Y-2489182D01*
X-1066403Y-2489169D01*
X-1066304Y-2489151D01*
X-1066207Y-2489130D01*
X-1066111Y-2489105D01*
X-1066015Y-2489076D01*
X-1065921Y-2489043D01*
X-1065828Y-2489007D01*
X-1065737Y-2488967D01*
X-1065647Y-2488923D01*
X-1065559Y-2488876D01*
X-1065473Y-2488826D01*
X-1065389Y-2488772D01*
X-1065307Y-2488715D01*
X-1065228Y-2488655D01*
X-1065150Y-2488591D01*
X-1065076Y-2488525D01*
X-1065004Y-2488456D01*
X-1064935Y-2488384D01*
X-1064869Y-2488310D01*
X-1064805Y-2488232D01*
X-1064745Y-2488153D01*
X-1064688Y-2488071D01*
X-1064634Y-2487987D01*
X-1064584Y-2487901D01*
X-1064537Y-2487813D01*
X-1064493Y-2487723D01*
X-1064453Y-2487632D01*
X-1064417Y-2487539D01*
X-1064384Y-2487445D01*
X-1064355Y-2487349D01*
X-1064330Y-2487253D01*
X-1064309Y-2487156D01*
X-1064291Y-2487057D01*
X-1064278Y-2486959D01*
X-1064268Y-2486859D01*
X-1064262Y-2486760D01*
X-1064260Y-2486660D01*
X-1064260Y-2463800D01*
D20*
X-1150620Y-2524760D03*
D19*
X-1150620Y-2501900D01*
D20*
X-1097280Y-2524760D03*
D19*
X-1097280Y-2501900D01*
D20*
X-1170940Y-2316480D03*
D19*
X-1170940Y-2336800D01*
D20*
X-1137920Y-2428240D03*
D19*
X-1137920Y-2402840D01*
X-1241460Y-2336800D02*
X-1242460Y-2335800D01*
X-1241460Y-2336800D02*
X-1189101Y-2336800D01*
X-1201420Y-2356120D02*
X-1222140Y-2356120D01*
X-1242460Y-2335800D01*
X-1201420Y-2649220D02*
X-1209300Y-2657100D01*
X-1214800Y-2657100D01*
X-1201420Y-2649220D02*
X-1201420Y-2356120D01*
M02*
