G04 EAGLE Gerber RS-274X export*
G75*
%MOMM*%
%FSLAX34Y34*%
%LPD*%
%INBottom Copper*%
%IPPOS*%
%AMOC8*
5,1,8,0,0,1.08239X$1,22.5*%
G01*
%ADD10C,1.778000*%
%ADD11C,2.100000*%
%ADD12R,1.524000X1.524000*%
%ADD13P,1.649562X8X202.500000*%
%ADD14C,1.108000*%
%ADD15C,2.300000*%
%ADD16R,1.108000X1.108000*%
%ADD17C,0.756400*%


D10*
X-1089660Y-2463800D03*
X-1140460Y-2463800D03*
X-1115060Y-2463800D03*
X-1064260Y-2463800D03*
D11*
X-1292460Y-2335800D03*
X-1242460Y-2335800D03*
X-1292460Y-2210800D03*
X-1242460Y-2210800D03*
D12*
X-859200Y-2657100D03*
D13*
X-859200Y-2631700D03*
X-884600Y-2657100D03*
X-884600Y-2631700D03*
X-910000Y-2657100D03*
X-910000Y-2631700D03*
X-935400Y-2657100D03*
X-935400Y-2631700D03*
X-960800Y-2657100D03*
X-960800Y-2631700D03*
X-986200Y-2657100D03*
X-986200Y-2631700D03*
X-1011600Y-2657100D03*
X-1011600Y-2631700D03*
X-1037000Y-2657100D03*
X-1037000Y-2631700D03*
X-1062400Y-2657100D03*
X-1062400Y-2631700D03*
X-1087800Y-2657100D03*
X-1087800Y-2631700D03*
X-1113200Y-2657100D03*
X-1113200Y-2631700D03*
X-1138600Y-2657100D03*
X-1138600Y-2631700D03*
X-1164000Y-2657100D03*
X-1164000Y-2631700D03*
X-1189400Y-2657100D03*
X-1189400Y-2631700D03*
X-1214800Y-2657100D03*
X-1214800Y-2631700D03*
X-1240200Y-2657100D03*
X-1240200Y-2631700D03*
X-1265600Y-2657100D03*
X-1265600Y-2631700D03*
X-1291000Y-2657100D03*
X-1291000Y-2631700D03*
D12*
X-859200Y-2403100D03*
D13*
X-859200Y-2377700D03*
X-884600Y-2403100D03*
X-884600Y-2377700D03*
X-910000Y-2403100D03*
X-910000Y-2377700D03*
X-935400Y-2403100D03*
X-935400Y-2377700D03*
X-960800Y-2403100D03*
X-960800Y-2377700D03*
X-986200Y-2403100D03*
X-986200Y-2377700D03*
X-1011600Y-2403100D03*
X-1011600Y-2377700D03*
X-1037000Y-2403100D03*
X-1037000Y-2377700D03*
X-1062400Y-2403100D03*
X-1062400Y-2377700D03*
X-1087800Y-2403100D03*
X-1087800Y-2377700D03*
X-1113200Y-2403100D03*
X-1113200Y-2377700D03*
X-1138600Y-2403100D03*
X-1138600Y-2377700D03*
X-1164000Y-2403100D03*
X-1164000Y-2377700D03*
X-1189400Y-2403100D03*
X-1189400Y-2377700D03*
X-1214800Y-2403100D03*
X-1214800Y-2377700D03*
X-1240200Y-2403100D03*
X-1240200Y-2377700D03*
X-1265600Y-2403100D03*
X-1265600Y-2377700D03*
X-1291000Y-2403100D03*
X-1291000Y-2377700D03*
D14*
X-901700Y-2349500D03*
X-921700Y-2349500D03*
X-941700Y-2349500D03*
X-961700Y-2349500D03*
D15*
X-871000Y-2322400D03*
X-1002400Y-2322400D03*
D16*
X-1153160Y-2336800D03*
X-1089660Y-2336800D03*
D17*
X-833120Y-2451100D03*
X-833120Y-2552700D03*
X-833120Y-2501900D03*
X-1089660Y-2489200D03*
X-962660Y-2324100D03*
X-1041400Y-2425700D03*
X-1153160Y-2359660D03*
X-1257300Y-2362200D03*
X-1066800Y-2489200D03*
X-1150620Y-2524760D03*
X-1097280Y-2524760D03*
X-1170940Y-2316480D03*
X-1137920Y-2428240D03*
M02*
