G04 EAGLE Gerber RS-274X export*
G75*
%MOMM*%
%FSLAX34Y34*%
%LPD*%
%IN*%
%IPPOS*%
%AMOC8*
5,1,8,0,0,1.08239X$1,22.5*%
G01*
%ADD10C,0.254000*%


D10*
X-1371600Y-2743200D02*
X-787400Y-2743200D01*
X-787400Y-2184400D01*
X-1371600Y-2184400D01*
X-1371600Y-2743200D01*
X-1343740Y-2205001D02*
X-1343803Y-2205559D01*
X-1343928Y-2206106D01*
X-1344113Y-2206636D01*
X-1344357Y-2207142D01*
X-1344656Y-2207618D01*
X-1345006Y-2208057D01*
X-1345403Y-2208454D01*
X-1345842Y-2208804D01*
X-1346318Y-2209103D01*
X-1346824Y-2209347D01*
X-1347354Y-2209532D01*
X-1347901Y-2209657D01*
X-1348459Y-2209720D01*
X-1349021Y-2209720D01*
X-1349579Y-2209657D01*
X-1350126Y-2209532D01*
X-1350656Y-2209347D01*
X-1351162Y-2209103D01*
X-1351638Y-2208804D01*
X-1352077Y-2208454D01*
X-1352474Y-2208057D01*
X-1352824Y-2207618D01*
X-1353123Y-2207142D01*
X-1353367Y-2206636D01*
X-1353552Y-2206106D01*
X-1353677Y-2205559D01*
X-1353740Y-2205001D01*
X-1353740Y-2204439D01*
X-1353677Y-2203881D01*
X-1353552Y-2203334D01*
X-1353367Y-2202804D01*
X-1353123Y-2202298D01*
X-1352824Y-2201822D01*
X-1352474Y-2201383D01*
X-1352077Y-2200986D01*
X-1351638Y-2200636D01*
X-1351162Y-2200337D01*
X-1350656Y-2200093D01*
X-1350126Y-2199908D01*
X-1349579Y-2199783D01*
X-1349021Y-2199720D01*
X-1348459Y-2199720D01*
X-1347901Y-2199783D01*
X-1347354Y-2199908D01*
X-1346824Y-2200093D01*
X-1346318Y-2200337D01*
X-1345842Y-2200636D01*
X-1345403Y-2200986D01*
X-1345006Y-2201383D01*
X-1344656Y-2201822D01*
X-1344357Y-2202298D01*
X-1344113Y-2202804D01*
X-1343928Y-2203334D01*
X-1343803Y-2203881D01*
X-1343740Y-2204439D01*
X-1343740Y-2205001D01*
X-797640Y-2202461D02*
X-797703Y-2203019D01*
X-797828Y-2203566D01*
X-798013Y-2204096D01*
X-798257Y-2204602D01*
X-798556Y-2205078D01*
X-798906Y-2205517D01*
X-799303Y-2205914D01*
X-799742Y-2206264D01*
X-800218Y-2206563D01*
X-800724Y-2206807D01*
X-801254Y-2206992D01*
X-801801Y-2207117D01*
X-802359Y-2207180D01*
X-802921Y-2207180D01*
X-803479Y-2207117D01*
X-804026Y-2206992D01*
X-804556Y-2206807D01*
X-805062Y-2206563D01*
X-805538Y-2206264D01*
X-805977Y-2205914D01*
X-806374Y-2205517D01*
X-806724Y-2205078D01*
X-807023Y-2204602D01*
X-807267Y-2204096D01*
X-807452Y-2203566D01*
X-807577Y-2203019D01*
X-807640Y-2202461D01*
X-807640Y-2201899D01*
X-807577Y-2201341D01*
X-807452Y-2200794D01*
X-807267Y-2200264D01*
X-807023Y-2199758D01*
X-806724Y-2199282D01*
X-806374Y-2198843D01*
X-805977Y-2198446D01*
X-805538Y-2198096D01*
X-805062Y-2197797D01*
X-804556Y-2197553D01*
X-804026Y-2197368D01*
X-803479Y-2197243D01*
X-802921Y-2197180D01*
X-802359Y-2197180D01*
X-801801Y-2197243D01*
X-801254Y-2197368D01*
X-800724Y-2197553D01*
X-800218Y-2197797D01*
X-799742Y-2198096D01*
X-799303Y-2198446D01*
X-798906Y-2198843D01*
X-798556Y-2199282D01*
X-798257Y-2199758D01*
X-798013Y-2200264D01*
X-797828Y-2200794D01*
X-797703Y-2201341D01*
X-797640Y-2201899D01*
X-797640Y-2202461D01*
X-1343740Y-2725701D02*
X-1343803Y-2726259D01*
X-1343928Y-2726806D01*
X-1344113Y-2727336D01*
X-1344357Y-2727842D01*
X-1344656Y-2728318D01*
X-1345006Y-2728757D01*
X-1345403Y-2729154D01*
X-1345842Y-2729504D01*
X-1346318Y-2729803D01*
X-1346824Y-2730047D01*
X-1347354Y-2730232D01*
X-1347901Y-2730357D01*
X-1348459Y-2730420D01*
X-1349021Y-2730420D01*
X-1349579Y-2730357D01*
X-1350126Y-2730232D01*
X-1350656Y-2730047D01*
X-1351162Y-2729803D01*
X-1351638Y-2729504D01*
X-1352077Y-2729154D01*
X-1352474Y-2728757D01*
X-1352824Y-2728318D01*
X-1353123Y-2727842D01*
X-1353367Y-2727336D01*
X-1353552Y-2726806D01*
X-1353677Y-2726259D01*
X-1353740Y-2725701D01*
X-1353740Y-2725139D01*
X-1353677Y-2724581D01*
X-1353552Y-2724034D01*
X-1353367Y-2723504D01*
X-1353123Y-2722998D01*
X-1352824Y-2722522D01*
X-1352474Y-2722083D01*
X-1352077Y-2721686D01*
X-1351638Y-2721336D01*
X-1351162Y-2721037D01*
X-1350656Y-2720793D01*
X-1350126Y-2720608D01*
X-1349579Y-2720483D01*
X-1349021Y-2720420D01*
X-1348459Y-2720420D01*
X-1347901Y-2720483D01*
X-1347354Y-2720608D01*
X-1346824Y-2720793D01*
X-1346318Y-2721037D01*
X-1345842Y-2721336D01*
X-1345403Y-2721686D01*
X-1345006Y-2722083D01*
X-1344656Y-2722522D01*
X-1344357Y-2722998D01*
X-1344113Y-2723504D01*
X-1343928Y-2724034D01*
X-1343803Y-2724581D01*
X-1343740Y-2725139D01*
X-1343740Y-2725701D01*
X-800180Y-2725701D02*
X-800243Y-2726259D01*
X-800368Y-2726806D01*
X-800553Y-2727336D01*
X-800797Y-2727842D01*
X-801096Y-2728318D01*
X-801446Y-2728757D01*
X-801843Y-2729154D01*
X-802282Y-2729504D01*
X-802758Y-2729803D01*
X-803264Y-2730047D01*
X-803794Y-2730232D01*
X-804341Y-2730357D01*
X-804899Y-2730420D01*
X-805461Y-2730420D01*
X-806019Y-2730357D01*
X-806566Y-2730232D01*
X-807096Y-2730047D01*
X-807602Y-2729803D01*
X-808078Y-2729504D01*
X-808517Y-2729154D01*
X-808914Y-2728757D01*
X-809264Y-2728318D01*
X-809563Y-2727842D01*
X-809807Y-2727336D01*
X-809992Y-2726806D01*
X-810117Y-2726259D01*
X-810180Y-2725701D01*
X-810180Y-2725139D01*
X-810117Y-2724581D01*
X-809992Y-2724034D01*
X-809807Y-2723504D01*
X-809563Y-2722998D01*
X-809264Y-2722522D01*
X-808914Y-2722083D01*
X-808517Y-2721686D01*
X-808078Y-2721336D01*
X-807602Y-2721037D01*
X-807096Y-2720793D01*
X-806566Y-2720608D01*
X-806019Y-2720483D01*
X-805461Y-2720420D01*
X-804899Y-2720420D01*
X-804341Y-2720483D01*
X-803794Y-2720608D01*
X-803264Y-2720793D01*
X-802758Y-2721037D01*
X-802282Y-2721336D01*
X-801843Y-2721686D01*
X-801446Y-2722083D01*
X-801096Y-2722522D01*
X-800797Y-2722998D01*
X-800553Y-2723504D01*
X-800368Y-2724034D01*
X-800243Y-2724581D01*
X-800180Y-2725139D01*
X-800180Y-2725701D01*
X-1313340Y-2692837D02*
X-1313416Y-2693707D01*
X-1313568Y-2694566D01*
X-1313794Y-2695410D01*
X-1314092Y-2696230D01*
X-1314461Y-2697022D01*
X-1314898Y-2697778D01*
X-1315399Y-2698493D01*
X-1315960Y-2699162D01*
X-1316578Y-2699780D01*
X-1317247Y-2700341D01*
X-1317962Y-2700842D01*
X-1318718Y-2701279D01*
X-1319510Y-2701648D01*
X-1320330Y-2701946D01*
X-1321174Y-2702172D01*
X-1322034Y-2702324D01*
X-1322903Y-2702400D01*
X-1323777Y-2702400D01*
X-1324647Y-2702324D01*
X-1325506Y-2702172D01*
X-1326350Y-2701946D01*
X-1327170Y-2701648D01*
X-1327962Y-2701279D01*
X-1328718Y-2700842D01*
X-1329433Y-2700341D01*
X-1330102Y-2699780D01*
X-1330720Y-2699162D01*
X-1331281Y-2698493D01*
X-1331782Y-2697778D01*
X-1332219Y-2697022D01*
X-1332588Y-2696230D01*
X-1332886Y-2695410D01*
X-1333112Y-2694566D01*
X-1333264Y-2693707D01*
X-1333340Y-2692837D01*
X-1333340Y-2691963D01*
X-1333264Y-2691094D01*
X-1333112Y-2690234D01*
X-1332886Y-2689390D01*
X-1332588Y-2688570D01*
X-1332219Y-2687778D01*
X-1331782Y-2687022D01*
X-1331281Y-2686307D01*
X-1330720Y-2685638D01*
X-1330102Y-2685020D01*
X-1329433Y-2684459D01*
X-1328718Y-2683958D01*
X-1327962Y-2683521D01*
X-1327170Y-2683152D01*
X-1326350Y-2682854D01*
X-1325506Y-2682628D01*
X-1324647Y-2682476D01*
X-1323777Y-2682400D01*
X-1322903Y-2682400D01*
X-1322034Y-2682476D01*
X-1321174Y-2682628D01*
X-1320330Y-2682854D01*
X-1319510Y-2683152D01*
X-1318718Y-2683521D01*
X-1317962Y-2683958D01*
X-1317247Y-2684459D01*
X-1316578Y-2685020D01*
X-1315960Y-2685638D01*
X-1315399Y-2686307D01*
X-1314898Y-2687022D01*
X-1314461Y-2687778D01*
X-1314092Y-2688570D01*
X-1313794Y-2689390D01*
X-1313568Y-2690234D01*
X-1313416Y-2691094D01*
X-1313340Y-2691963D01*
X-1313340Y-2692837D01*
X-876460Y-2692837D02*
X-876536Y-2693707D01*
X-876688Y-2694566D01*
X-876914Y-2695410D01*
X-877212Y-2696230D01*
X-877581Y-2697022D01*
X-878018Y-2697778D01*
X-878519Y-2698493D01*
X-879080Y-2699162D01*
X-879698Y-2699780D01*
X-880367Y-2700341D01*
X-881082Y-2700842D01*
X-881838Y-2701279D01*
X-882630Y-2701648D01*
X-883450Y-2701946D01*
X-884294Y-2702172D01*
X-885154Y-2702324D01*
X-886023Y-2702400D01*
X-886897Y-2702400D01*
X-887767Y-2702324D01*
X-888626Y-2702172D01*
X-889470Y-2701946D01*
X-890290Y-2701648D01*
X-891082Y-2701279D01*
X-891838Y-2700842D01*
X-892553Y-2700341D01*
X-893222Y-2699780D01*
X-893840Y-2699162D01*
X-894401Y-2698493D01*
X-894902Y-2697778D01*
X-895339Y-2697022D01*
X-895708Y-2696230D01*
X-896006Y-2695410D01*
X-896232Y-2694566D01*
X-896384Y-2693707D01*
X-896460Y-2692837D01*
X-896460Y-2691963D01*
X-896384Y-2691094D01*
X-896232Y-2690234D01*
X-896006Y-2689390D01*
X-895708Y-2688570D01*
X-895339Y-2687778D01*
X-894902Y-2687022D01*
X-894401Y-2686307D01*
X-893840Y-2685638D01*
X-893222Y-2685020D01*
X-892553Y-2684459D01*
X-891838Y-2683958D01*
X-891082Y-2683521D01*
X-890290Y-2683152D01*
X-889470Y-2682854D01*
X-888626Y-2682628D01*
X-887767Y-2682476D01*
X-886897Y-2682400D01*
X-886023Y-2682400D01*
X-885154Y-2682476D01*
X-884294Y-2682628D01*
X-883450Y-2682854D01*
X-882630Y-2683152D01*
X-881838Y-2683521D01*
X-881082Y-2683958D01*
X-880367Y-2684459D01*
X-879698Y-2685020D01*
X-879080Y-2685638D01*
X-878519Y-2686307D01*
X-878018Y-2687022D01*
X-877581Y-2687778D01*
X-877212Y-2688570D01*
X-876914Y-2689390D01*
X-876688Y-2690234D01*
X-876536Y-2691094D01*
X-876460Y-2691963D01*
X-876460Y-2692837D01*
X-1313340Y-2464237D02*
X-1313416Y-2465107D01*
X-1313568Y-2465966D01*
X-1313794Y-2466810D01*
X-1314092Y-2467630D01*
X-1314461Y-2468422D01*
X-1314898Y-2469178D01*
X-1315399Y-2469893D01*
X-1315960Y-2470562D01*
X-1316578Y-2471180D01*
X-1317247Y-2471741D01*
X-1317962Y-2472242D01*
X-1318718Y-2472679D01*
X-1319510Y-2473048D01*
X-1320330Y-2473346D01*
X-1321174Y-2473572D01*
X-1322034Y-2473724D01*
X-1322903Y-2473800D01*
X-1323777Y-2473800D01*
X-1324647Y-2473724D01*
X-1325506Y-2473572D01*
X-1326350Y-2473346D01*
X-1327170Y-2473048D01*
X-1327962Y-2472679D01*
X-1328718Y-2472242D01*
X-1329433Y-2471741D01*
X-1330102Y-2471180D01*
X-1330720Y-2470562D01*
X-1331281Y-2469893D01*
X-1331782Y-2469178D01*
X-1332219Y-2468422D01*
X-1332588Y-2467630D01*
X-1332886Y-2466810D01*
X-1333112Y-2465966D01*
X-1333264Y-2465107D01*
X-1333340Y-2464237D01*
X-1333340Y-2463363D01*
X-1333264Y-2462494D01*
X-1333112Y-2461634D01*
X-1332886Y-2460790D01*
X-1332588Y-2459970D01*
X-1332219Y-2459178D01*
X-1331782Y-2458422D01*
X-1331281Y-2457707D01*
X-1330720Y-2457038D01*
X-1330102Y-2456420D01*
X-1329433Y-2455859D01*
X-1328718Y-2455358D01*
X-1327962Y-2454921D01*
X-1327170Y-2454552D01*
X-1326350Y-2454254D01*
X-1325506Y-2454028D01*
X-1324647Y-2453876D01*
X-1323777Y-2453800D01*
X-1322903Y-2453800D01*
X-1322034Y-2453876D01*
X-1321174Y-2454028D01*
X-1320330Y-2454254D01*
X-1319510Y-2454552D01*
X-1318718Y-2454921D01*
X-1317962Y-2455358D01*
X-1317247Y-2455859D01*
X-1316578Y-2456420D01*
X-1315960Y-2457038D01*
X-1315399Y-2457707D01*
X-1314898Y-2458422D01*
X-1314461Y-2459178D01*
X-1314092Y-2459970D01*
X-1313794Y-2460790D01*
X-1313568Y-2461634D01*
X-1313416Y-2462494D01*
X-1313340Y-2463363D01*
X-1313340Y-2464237D01*
X-876460Y-2464237D02*
X-876536Y-2465107D01*
X-876688Y-2465966D01*
X-876914Y-2466810D01*
X-877212Y-2467630D01*
X-877581Y-2468422D01*
X-878018Y-2469178D01*
X-878519Y-2469893D01*
X-879080Y-2470562D01*
X-879698Y-2471180D01*
X-880367Y-2471741D01*
X-881082Y-2472242D01*
X-881838Y-2472679D01*
X-882630Y-2473048D01*
X-883450Y-2473346D01*
X-884294Y-2473572D01*
X-885154Y-2473724D01*
X-886023Y-2473800D01*
X-886897Y-2473800D01*
X-887767Y-2473724D01*
X-888626Y-2473572D01*
X-889470Y-2473346D01*
X-890290Y-2473048D01*
X-891082Y-2472679D01*
X-891838Y-2472242D01*
X-892553Y-2471741D01*
X-893222Y-2471180D01*
X-893840Y-2470562D01*
X-894401Y-2469893D01*
X-894902Y-2469178D01*
X-895339Y-2468422D01*
X-895708Y-2467630D01*
X-896006Y-2466810D01*
X-896232Y-2465966D01*
X-896384Y-2465107D01*
X-896460Y-2464237D01*
X-896460Y-2463363D01*
X-896384Y-2462494D01*
X-896232Y-2461634D01*
X-896006Y-2460790D01*
X-895708Y-2459970D01*
X-895339Y-2459178D01*
X-894902Y-2458422D01*
X-894401Y-2457707D01*
X-893840Y-2457038D01*
X-893222Y-2456420D01*
X-892553Y-2455859D01*
X-891838Y-2455358D01*
X-891082Y-2454921D01*
X-890290Y-2454552D01*
X-889470Y-2454254D01*
X-888626Y-2454028D01*
X-887767Y-2453876D01*
X-886897Y-2453800D01*
X-886023Y-2453800D01*
X-885154Y-2453876D01*
X-884294Y-2454028D01*
X-883450Y-2454254D01*
X-882630Y-2454552D01*
X-881838Y-2454921D01*
X-881082Y-2455358D01*
X-880367Y-2455859D01*
X-879698Y-2456420D01*
X-879080Y-2457038D01*
X-878519Y-2457707D01*
X-878018Y-2458422D01*
X-877581Y-2459178D01*
X-877212Y-2459970D01*
X-876914Y-2460790D01*
X-876688Y-2461634D01*
X-876536Y-2462494D01*
X-876460Y-2463363D01*
X-876460Y-2464237D01*
M02*
