G04 EAGLE Gerber RS-274X export*
G75*
%MOMM*%
%FSLAX34Y34*%
%LPD*%
%INSilkscreen Bottom*%
%IPPOS*%
%AMOC8*
5,1,8,0,0,1.08239X$1,22.5*%
G01*
%ADD10C,0.254000*%
%ADD11C,0.152400*%
%ADD12C,0.050800*%


D10*
X-1248830Y-2343670D02*
X-898830Y-2343670D01*
X-896414Y-2343699D01*
X-893999Y-2343787D01*
X-891587Y-2343933D01*
X-889179Y-2344137D01*
X-886776Y-2344399D01*
X-884381Y-2344719D01*
X-881994Y-2345097D01*
X-879617Y-2345533D01*
X-877252Y-2346026D01*
X-874898Y-2346576D01*
X-872559Y-2347182D01*
X-870235Y-2347845D01*
X-867928Y-2348564D01*
X-865639Y-2349339D01*
X-863370Y-2350168D01*
X-861121Y-2351053D01*
X-858894Y-2351991D01*
X-856690Y-2352983D01*
X-854511Y-2354027D01*
X-852358Y-2355124D01*
X-850232Y-2356273D01*
X-848134Y-2357473D01*
X-846066Y-2358723D01*
X-844029Y-2360023D01*
X-842024Y-2361372D01*
X-840051Y-2362768D01*
X-838114Y-2364212D01*
X-836211Y-2365703D01*
X-834346Y-2367238D01*
X-832518Y-2368819D01*
X-830728Y-2370443D01*
X-828979Y-2372110D01*
X-827270Y-2373819D01*
X-825603Y-2375568D01*
X-823979Y-2377358D01*
X-822398Y-2379186D01*
X-820863Y-2381051D01*
X-819372Y-2382954D01*
X-817928Y-2384891D01*
X-816532Y-2386864D01*
X-815183Y-2388869D01*
X-813883Y-2390906D01*
X-812633Y-2392974D01*
X-811433Y-2395072D01*
X-810284Y-2397198D01*
X-809187Y-2399351D01*
X-808143Y-2401530D01*
X-807151Y-2403734D01*
X-806213Y-2405961D01*
X-805328Y-2408210D01*
X-804499Y-2410479D01*
X-803724Y-2412768D01*
X-803005Y-2415075D01*
X-802342Y-2417399D01*
X-801736Y-2419738D01*
X-801186Y-2422092D01*
X-800693Y-2424457D01*
X-800257Y-2426834D01*
X-799879Y-2429221D01*
X-799559Y-2431616D01*
X-799297Y-2434019D01*
X-799093Y-2436427D01*
X-798947Y-2438839D01*
X-798859Y-2441254D01*
X-798830Y-2443670D01*
X-798830Y-2593670D01*
X-798859Y-2596086D01*
X-798947Y-2598501D01*
X-799093Y-2600913D01*
X-799297Y-2603321D01*
X-799559Y-2605724D01*
X-799879Y-2608119D01*
X-800257Y-2610506D01*
X-800693Y-2612883D01*
X-801186Y-2615248D01*
X-801736Y-2617602D01*
X-802342Y-2619941D01*
X-803005Y-2622265D01*
X-803724Y-2624572D01*
X-804499Y-2626861D01*
X-805328Y-2629130D01*
X-806213Y-2631379D01*
X-807151Y-2633606D01*
X-808143Y-2635810D01*
X-809187Y-2637989D01*
X-810284Y-2640142D01*
X-811433Y-2642268D01*
X-812633Y-2644366D01*
X-813883Y-2646434D01*
X-815183Y-2648471D01*
X-816532Y-2650476D01*
X-817928Y-2652449D01*
X-819372Y-2654386D01*
X-820863Y-2656289D01*
X-822398Y-2658154D01*
X-823979Y-2659982D01*
X-825603Y-2661772D01*
X-827270Y-2663521D01*
X-828979Y-2665230D01*
X-830728Y-2666897D01*
X-832518Y-2668521D01*
X-834346Y-2670102D01*
X-836211Y-2671637D01*
X-838114Y-2673128D01*
X-840051Y-2674572D01*
X-842024Y-2675968D01*
X-844029Y-2677317D01*
X-846066Y-2678617D01*
X-848134Y-2679867D01*
X-850232Y-2681067D01*
X-852358Y-2682216D01*
X-854511Y-2683313D01*
X-856690Y-2684357D01*
X-858894Y-2685349D01*
X-861121Y-2686287D01*
X-863370Y-2687172D01*
X-865639Y-2688001D01*
X-867928Y-2688776D01*
X-870235Y-2689495D01*
X-872559Y-2690158D01*
X-874898Y-2690764D01*
X-877252Y-2691314D01*
X-879617Y-2691807D01*
X-881994Y-2692243D01*
X-884381Y-2692621D01*
X-886776Y-2692941D01*
X-889179Y-2693203D01*
X-891587Y-2693407D01*
X-893999Y-2693553D01*
X-896414Y-2693641D01*
X-898830Y-2693670D01*
X-1248830Y-2693670D01*
X-1251246Y-2693641D01*
X-1253661Y-2693553D01*
X-1256073Y-2693407D01*
X-1258481Y-2693203D01*
X-1260884Y-2692941D01*
X-1263279Y-2692621D01*
X-1265666Y-2692243D01*
X-1268043Y-2691807D01*
X-1270408Y-2691314D01*
X-1272762Y-2690764D01*
X-1275101Y-2690158D01*
X-1277425Y-2689495D01*
X-1279732Y-2688776D01*
X-1282021Y-2688001D01*
X-1284290Y-2687172D01*
X-1286539Y-2686287D01*
X-1288766Y-2685349D01*
X-1290970Y-2684357D01*
X-1293149Y-2683313D01*
X-1295302Y-2682216D01*
X-1297428Y-2681067D01*
X-1299526Y-2679867D01*
X-1301594Y-2678617D01*
X-1303631Y-2677317D01*
X-1305636Y-2675968D01*
X-1307609Y-2674572D01*
X-1309546Y-2673128D01*
X-1311449Y-2671637D01*
X-1313314Y-2670102D01*
X-1315142Y-2668521D01*
X-1316932Y-2666897D01*
X-1318681Y-2665230D01*
X-1320390Y-2663521D01*
X-1322057Y-2661772D01*
X-1323681Y-2659982D01*
X-1325262Y-2658154D01*
X-1326797Y-2656289D01*
X-1328288Y-2654386D01*
X-1329732Y-2652449D01*
X-1331128Y-2650476D01*
X-1332477Y-2648471D01*
X-1333777Y-2646434D01*
X-1335027Y-2644366D01*
X-1336227Y-2642268D01*
X-1337376Y-2640142D01*
X-1338473Y-2637989D01*
X-1339517Y-2635810D01*
X-1340509Y-2633606D01*
X-1341447Y-2631379D01*
X-1342332Y-2629130D01*
X-1343161Y-2626861D01*
X-1343936Y-2624572D01*
X-1344655Y-2622265D01*
X-1345318Y-2619941D01*
X-1345924Y-2617602D01*
X-1346474Y-2615248D01*
X-1346967Y-2612883D01*
X-1347403Y-2610506D01*
X-1347781Y-2608119D01*
X-1348101Y-2605724D01*
X-1348363Y-2603321D01*
X-1348567Y-2600913D01*
X-1348713Y-2598501D01*
X-1348801Y-2596086D01*
X-1348830Y-2593670D01*
X-1348830Y-2443670D01*
X-1348801Y-2441254D01*
X-1348713Y-2438839D01*
X-1348567Y-2436427D01*
X-1348363Y-2434019D01*
X-1348101Y-2431616D01*
X-1347781Y-2429221D01*
X-1347403Y-2426834D01*
X-1346967Y-2424457D01*
X-1346474Y-2422092D01*
X-1345924Y-2419738D01*
X-1345318Y-2417399D01*
X-1344655Y-2415075D01*
X-1343936Y-2412768D01*
X-1343161Y-2410479D01*
X-1342332Y-2408210D01*
X-1341447Y-2405961D01*
X-1340509Y-2403734D01*
X-1339517Y-2401530D01*
X-1338473Y-2399351D01*
X-1337376Y-2397198D01*
X-1336227Y-2395072D01*
X-1335027Y-2392974D01*
X-1333777Y-2390906D01*
X-1332477Y-2388869D01*
X-1331128Y-2386864D01*
X-1329732Y-2384891D01*
X-1328288Y-2382954D01*
X-1326797Y-2381051D01*
X-1325262Y-2379186D01*
X-1323681Y-2377358D01*
X-1322057Y-2375568D01*
X-1320390Y-2373819D01*
X-1318681Y-2372110D01*
X-1316932Y-2370443D01*
X-1315142Y-2368819D01*
X-1313314Y-2367238D01*
X-1311449Y-2365703D01*
X-1309546Y-2364212D01*
X-1307609Y-2362768D01*
X-1305636Y-2361372D01*
X-1303631Y-2360023D01*
X-1301594Y-2358723D01*
X-1299526Y-2357473D01*
X-1297428Y-2356273D01*
X-1295302Y-2355124D01*
X-1293149Y-2354027D01*
X-1290970Y-2352983D01*
X-1288766Y-2351991D01*
X-1286539Y-2351053D01*
X-1284290Y-2350168D01*
X-1282021Y-2349339D01*
X-1279732Y-2348564D01*
X-1277425Y-2347845D01*
X-1275101Y-2347182D01*
X-1272762Y-2346576D01*
X-1270408Y-2346026D01*
X-1268043Y-2345533D01*
X-1265666Y-2345097D01*
X-1263279Y-2344719D01*
X-1260884Y-2344399D01*
X-1258481Y-2344137D01*
X-1256073Y-2343933D01*
X-1253661Y-2343787D01*
X-1251246Y-2343699D01*
X-1248830Y-2343670D01*
D11*
X-837438Y-2650123D02*
X-826262Y-2650123D01*
X-826262Y-2647019D01*
X-826264Y-2646908D01*
X-826270Y-2646798D01*
X-826280Y-2646687D01*
X-826294Y-2646577D01*
X-826311Y-2646468D01*
X-826333Y-2646359D01*
X-826358Y-2646251D01*
X-826388Y-2646145D01*
X-826421Y-2646039D01*
X-826458Y-2645934D01*
X-826498Y-2645831D01*
X-826543Y-2645730D01*
X-826590Y-2645630D01*
X-826642Y-2645531D01*
X-826697Y-2645435D01*
X-826755Y-2645341D01*
X-826816Y-2645249D01*
X-826881Y-2645159D01*
X-826949Y-2645071D01*
X-827020Y-2644986D01*
X-827094Y-2644904D01*
X-827171Y-2644824D01*
X-827251Y-2644747D01*
X-827333Y-2644673D01*
X-827418Y-2644602D01*
X-827506Y-2644534D01*
X-827596Y-2644469D01*
X-827688Y-2644408D01*
X-827782Y-2644350D01*
X-827878Y-2644295D01*
X-827977Y-2644243D01*
X-828077Y-2644196D01*
X-828178Y-2644151D01*
X-828281Y-2644111D01*
X-828386Y-2644074D01*
X-828492Y-2644041D01*
X-828598Y-2644011D01*
X-828706Y-2643986D01*
X-828815Y-2643964D01*
X-828924Y-2643947D01*
X-829034Y-2643933D01*
X-829145Y-2643923D01*
X-829255Y-2643917D01*
X-829366Y-2643915D01*
X-829477Y-2643917D01*
X-829587Y-2643923D01*
X-829698Y-2643933D01*
X-829808Y-2643947D01*
X-829917Y-2643964D01*
X-830026Y-2643986D01*
X-830134Y-2644011D01*
X-830240Y-2644041D01*
X-830346Y-2644074D01*
X-830451Y-2644111D01*
X-830554Y-2644151D01*
X-830655Y-2644196D01*
X-830755Y-2644243D01*
X-830854Y-2644295D01*
X-830950Y-2644350D01*
X-831044Y-2644408D01*
X-831136Y-2644469D01*
X-831226Y-2644534D01*
X-831314Y-2644602D01*
X-831399Y-2644673D01*
X-831481Y-2644747D01*
X-831561Y-2644824D01*
X-831638Y-2644904D01*
X-831712Y-2644986D01*
X-831783Y-2645071D01*
X-831851Y-2645159D01*
X-831916Y-2645249D01*
X-831977Y-2645341D01*
X-832035Y-2645435D01*
X-832090Y-2645531D01*
X-832142Y-2645630D01*
X-832189Y-2645730D01*
X-832234Y-2645831D01*
X-832274Y-2645934D01*
X-832311Y-2646039D01*
X-832344Y-2646145D01*
X-832374Y-2646251D01*
X-832399Y-2646359D01*
X-832421Y-2646468D01*
X-832438Y-2646577D01*
X-832452Y-2646687D01*
X-832462Y-2646798D01*
X-832468Y-2646908D01*
X-832470Y-2647019D01*
X-832471Y-2647019D02*
X-832471Y-2650123D01*
X-828746Y-2639286D02*
X-826262Y-2636181D01*
X-837438Y-2636181D01*
X-837438Y-2633077D02*
X-837438Y-2639286D01*
X-837438Y-2396123D02*
X-826262Y-2396123D01*
X-826262Y-2393019D01*
X-826264Y-2392908D01*
X-826270Y-2392798D01*
X-826280Y-2392687D01*
X-826294Y-2392577D01*
X-826311Y-2392468D01*
X-826333Y-2392359D01*
X-826358Y-2392251D01*
X-826388Y-2392145D01*
X-826421Y-2392039D01*
X-826458Y-2391934D01*
X-826498Y-2391831D01*
X-826543Y-2391730D01*
X-826590Y-2391630D01*
X-826642Y-2391531D01*
X-826697Y-2391435D01*
X-826755Y-2391341D01*
X-826816Y-2391249D01*
X-826881Y-2391159D01*
X-826949Y-2391071D01*
X-827020Y-2390986D01*
X-827094Y-2390904D01*
X-827171Y-2390824D01*
X-827251Y-2390747D01*
X-827333Y-2390673D01*
X-827418Y-2390602D01*
X-827506Y-2390534D01*
X-827596Y-2390469D01*
X-827688Y-2390408D01*
X-827782Y-2390350D01*
X-827878Y-2390295D01*
X-827977Y-2390243D01*
X-828077Y-2390196D01*
X-828178Y-2390151D01*
X-828281Y-2390111D01*
X-828386Y-2390074D01*
X-828492Y-2390041D01*
X-828598Y-2390011D01*
X-828706Y-2389986D01*
X-828815Y-2389964D01*
X-828924Y-2389947D01*
X-829034Y-2389933D01*
X-829145Y-2389923D01*
X-829255Y-2389917D01*
X-829366Y-2389915D01*
X-829477Y-2389917D01*
X-829587Y-2389923D01*
X-829698Y-2389933D01*
X-829808Y-2389947D01*
X-829917Y-2389964D01*
X-830026Y-2389986D01*
X-830134Y-2390011D01*
X-830240Y-2390041D01*
X-830346Y-2390074D01*
X-830451Y-2390111D01*
X-830554Y-2390151D01*
X-830655Y-2390196D01*
X-830755Y-2390243D01*
X-830854Y-2390295D01*
X-830950Y-2390350D01*
X-831044Y-2390408D01*
X-831136Y-2390469D01*
X-831226Y-2390534D01*
X-831314Y-2390602D01*
X-831399Y-2390673D01*
X-831481Y-2390747D01*
X-831561Y-2390824D01*
X-831638Y-2390904D01*
X-831712Y-2390986D01*
X-831783Y-2391071D01*
X-831851Y-2391159D01*
X-831916Y-2391249D01*
X-831977Y-2391341D01*
X-832035Y-2391435D01*
X-832090Y-2391531D01*
X-832142Y-2391630D01*
X-832189Y-2391730D01*
X-832234Y-2391831D01*
X-832274Y-2391934D01*
X-832311Y-2392039D01*
X-832344Y-2392145D01*
X-832374Y-2392251D01*
X-832399Y-2392359D01*
X-832421Y-2392468D01*
X-832438Y-2392577D01*
X-832452Y-2392687D01*
X-832462Y-2392798D01*
X-832468Y-2392908D01*
X-832470Y-2393019D01*
X-832471Y-2393019D02*
X-832471Y-2396123D01*
X-826262Y-2381871D02*
X-826264Y-2381767D01*
X-826270Y-2381662D01*
X-826280Y-2381558D01*
X-826293Y-2381455D01*
X-826311Y-2381352D01*
X-826332Y-2381249D01*
X-826357Y-2381148D01*
X-826386Y-2381047D01*
X-826419Y-2380948D01*
X-826455Y-2380850D01*
X-826495Y-2380754D01*
X-826539Y-2380659D01*
X-826586Y-2380565D01*
X-826636Y-2380474D01*
X-826690Y-2380385D01*
X-826747Y-2380297D01*
X-826808Y-2380212D01*
X-826872Y-2380129D01*
X-826938Y-2380049D01*
X-827008Y-2379971D01*
X-827080Y-2379895D01*
X-827156Y-2379823D01*
X-827234Y-2379753D01*
X-827314Y-2379687D01*
X-827397Y-2379623D01*
X-827482Y-2379562D01*
X-827570Y-2379505D01*
X-827659Y-2379451D01*
X-827750Y-2379401D01*
X-827844Y-2379354D01*
X-827939Y-2379310D01*
X-828035Y-2379270D01*
X-828133Y-2379234D01*
X-828232Y-2379201D01*
X-828333Y-2379172D01*
X-828434Y-2379147D01*
X-828537Y-2379126D01*
X-828640Y-2379108D01*
X-828743Y-2379095D01*
X-828847Y-2379085D01*
X-828952Y-2379079D01*
X-829056Y-2379077D01*
X-826262Y-2381871D02*
X-826264Y-2381990D01*
X-826270Y-2382108D01*
X-826280Y-2382227D01*
X-826293Y-2382345D01*
X-826311Y-2382462D01*
X-826333Y-2382579D01*
X-826358Y-2382695D01*
X-826387Y-2382810D01*
X-826420Y-2382925D01*
X-826457Y-2383038D01*
X-826497Y-2383149D01*
X-826541Y-2383260D01*
X-826589Y-2383368D01*
X-826640Y-2383475D01*
X-826695Y-2383581D01*
X-826754Y-2383684D01*
X-826815Y-2383786D01*
X-826880Y-2383885D01*
X-826949Y-2383983D01*
X-827020Y-2384077D01*
X-827095Y-2384170D01*
X-827172Y-2384260D01*
X-827253Y-2384347D01*
X-827336Y-2384432D01*
X-827422Y-2384514D01*
X-827511Y-2384593D01*
X-827602Y-2384669D01*
X-827696Y-2384742D01*
X-827792Y-2384811D01*
X-827891Y-2384878D01*
X-827991Y-2384941D01*
X-828094Y-2385001D01*
X-828198Y-2385058D01*
X-828305Y-2385110D01*
X-828413Y-2385160D01*
X-828522Y-2385206D01*
X-828634Y-2385248D01*
X-828746Y-2385286D01*
X-831229Y-2380008D02*
X-831155Y-2379933D01*
X-831078Y-2379861D01*
X-830999Y-2379791D01*
X-830917Y-2379724D01*
X-830833Y-2379660D01*
X-830747Y-2379599D01*
X-830659Y-2379541D01*
X-830568Y-2379486D01*
X-830476Y-2379434D01*
X-830382Y-2379386D01*
X-830287Y-2379341D01*
X-830189Y-2379299D01*
X-830091Y-2379261D01*
X-829991Y-2379226D01*
X-829890Y-2379195D01*
X-829788Y-2379168D01*
X-829685Y-2379144D01*
X-829582Y-2379123D01*
X-829477Y-2379107D01*
X-829372Y-2379094D01*
X-829267Y-2379084D01*
X-829162Y-2379079D01*
X-829056Y-2379077D01*
X-831229Y-2380008D02*
X-837438Y-2385286D01*
X-837438Y-2379077D01*
D12*
X-1016254Y-2438908D02*
X-1016254Y-2444496D01*
X-1016254Y-2438908D02*
X-1017806Y-2438908D01*
X-1017883Y-2438910D01*
X-1017961Y-2438916D01*
X-1018037Y-2438925D01*
X-1018114Y-2438939D01*
X-1018189Y-2438956D01*
X-1018263Y-2438977D01*
X-1018337Y-2439002D01*
X-1018409Y-2439030D01*
X-1018479Y-2439062D01*
X-1018548Y-2439097D01*
X-1018615Y-2439136D01*
X-1018680Y-2439178D01*
X-1018743Y-2439223D01*
X-1018804Y-2439271D01*
X-1018862Y-2439322D01*
X-1018917Y-2439376D01*
X-1018970Y-2439433D01*
X-1019019Y-2439492D01*
X-1019066Y-2439554D01*
X-1019110Y-2439618D01*
X-1019150Y-2439684D01*
X-1019187Y-2439752D01*
X-1019221Y-2439822D01*
X-1019251Y-2439893D01*
X-1019277Y-2439966D01*
X-1019300Y-2440040D01*
X-1019319Y-2440115D01*
X-1019334Y-2440190D01*
X-1019346Y-2440267D01*
X-1019354Y-2440344D01*
X-1019358Y-2440421D01*
X-1019358Y-2440499D01*
X-1019354Y-2440576D01*
X-1019346Y-2440653D01*
X-1019334Y-2440730D01*
X-1019319Y-2440805D01*
X-1019300Y-2440880D01*
X-1019277Y-2440954D01*
X-1019251Y-2441027D01*
X-1019221Y-2441098D01*
X-1019187Y-2441168D01*
X-1019150Y-2441236D01*
X-1019110Y-2441302D01*
X-1019066Y-2441366D01*
X-1019019Y-2441428D01*
X-1018970Y-2441487D01*
X-1018917Y-2441544D01*
X-1018862Y-2441598D01*
X-1018804Y-2441649D01*
X-1018743Y-2441697D01*
X-1018680Y-2441742D01*
X-1018615Y-2441784D01*
X-1018548Y-2441823D01*
X-1018479Y-2441858D01*
X-1018409Y-2441890D01*
X-1018337Y-2441918D01*
X-1018263Y-2441943D01*
X-1018189Y-2441964D01*
X-1018114Y-2441981D01*
X-1018037Y-2441995D01*
X-1017961Y-2442004D01*
X-1017883Y-2442010D01*
X-1017806Y-2442012D01*
X-1016254Y-2442012D01*
X-1021419Y-2442012D02*
X-1021419Y-2443254D01*
X-1021419Y-2442012D02*
X-1021421Y-2441942D01*
X-1021427Y-2441873D01*
X-1021437Y-2441804D01*
X-1021450Y-2441736D01*
X-1021468Y-2441668D01*
X-1021489Y-2441602D01*
X-1021514Y-2441537D01*
X-1021542Y-2441473D01*
X-1021574Y-2441411D01*
X-1021609Y-2441351D01*
X-1021648Y-2441293D01*
X-1021690Y-2441238D01*
X-1021735Y-2441184D01*
X-1021783Y-2441134D01*
X-1021833Y-2441086D01*
X-1021887Y-2441041D01*
X-1021942Y-2440999D01*
X-1022000Y-2440960D01*
X-1022060Y-2440925D01*
X-1022122Y-2440893D01*
X-1022186Y-2440865D01*
X-1022251Y-2440840D01*
X-1022317Y-2440819D01*
X-1022385Y-2440801D01*
X-1022453Y-2440788D01*
X-1022522Y-2440778D01*
X-1022591Y-2440772D01*
X-1022661Y-2440770D01*
X-1022731Y-2440772D01*
X-1022800Y-2440778D01*
X-1022869Y-2440788D01*
X-1022937Y-2440801D01*
X-1023005Y-2440819D01*
X-1023071Y-2440840D01*
X-1023136Y-2440865D01*
X-1023200Y-2440893D01*
X-1023262Y-2440925D01*
X-1023322Y-2440960D01*
X-1023380Y-2440999D01*
X-1023435Y-2441041D01*
X-1023489Y-2441086D01*
X-1023539Y-2441134D01*
X-1023587Y-2441184D01*
X-1023632Y-2441238D01*
X-1023674Y-2441293D01*
X-1023713Y-2441351D01*
X-1023748Y-2441411D01*
X-1023780Y-2441473D01*
X-1023808Y-2441537D01*
X-1023833Y-2441602D01*
X-1023854Y-2441668D01*
X-1023872Y-2441736D01*
X-1023885Y-2441804D01*
X-1023895Y-2441873D01*
X-1023901Y-2441942D01*
X-1023903Y-2442012D01*
X-1023903Y-2443254D01*
X-1023901Y-2443324D01*
X-1023895Y-2443393D01*
X-1023885Y-2443462D01*
X-1023872Y-2443530D01*
X-1023854Y-2443598D01*
X-1023833Y-2443664D01*
X-1023808Y-2443729D01*
X-1023780Y-2443793D01*
X-1023748Y-2443855D01*
X-1023713Y-2443915D01*
X-1023674Y-2443973D01*
X-1023632Y-2444028D01*
X-1023587Y-2444082D01*
X-1023539Y-2444132D01*
X-1023489Y-2444180D01*
X-1023435Y-2444225D01*
X-1023380Y-2444267D01*
X-1023322Y-2444306D01*
X-1023262Y-2444341D01*
X-1023200Y-2444373D01*
X-1023136Y-2444401D01*
X-1023071Y-2444426D01*
X-1023005Y-2444447D01*
X-1022937Y-2444465D01*
X-1022869Y-2444478D01*
X-1022800Y-2444488D01*
X-1022731Y-2444494D01*
X-1022661Y-2444496D01*
X-1022591Y-2444494D01*
X-1022522Y-2444488D01*
X-1022453Y-2444478D01*
X-1022385Y-2444465D01*
X-1022317Y-2444447D01*
X-1022251Y-2444426D01*
X-1022186Y-2444401D01*
X-1022122Y-2444373D01*
X-1022060Y-2444341D01*
X-1022000Y-2444306D01*
X-1021942Y-2444267D01*
X-1021887Y-2444225D01*
X-1021833Y-2444180D01*
X-1021783Y-2444132D01*
X-1021735Y-2444082D01*
X-1021690Y-2444028D01*
X-1021648Y-2443973D01*
X-1021609Y-2443915D01*
X-1021574Y-2443855D01*
X-1021542Y-2443793D01*
X-1021514Y-2443729D01*
X-1021489Y-2443664D01*
X-1021468Y-2443598D01*
X-1021450Y-2443530D01*
X-1021437Y-2443462D01*
X-1021427Y-2443393D01*
X-1021421Y-2443324D01*
X-1021419Y-2443254D01*
X-1027112Y-2444496D02*
X-1028354Y-2444496D01*
X-1027112Y-2444496D02*
X-1027054Y-2444494D01*
X-1026995Y-2444489D01*
X-1026938Y-2444480D01*
X-1026880Y-2444467D01*
X-1026824Y-2444450D01*
X-1026769Y-2444431D01*
X-1026716Y-2444407D01*
X-1026663Y-2444381D01*
X-1026613Y-2444351D01*
X-1026565Y-2444318D01*
X-1026519Y-2444282D01*
X-1026475Y-2444244D01*
X-1026433Y-2444202D01*
X-1026395Y-2444158D01*
X-1026359Y-2444112D01*
X-1026326Y-2444064D01*
X-1026296Y-2444014D01*
X-1026270Y-2443961D01*
X-1026246Y-2443908D01*
X-1026227Y-2443853D01*
X-1026210Y-2443797D01*
X-1026197Y-2443739D01*
X-1026188Y-2443682D01*
X-1026183Y-2443623D01*
X-1026181Y-2443565D01*
X-1026181Y-2441702D01*
X-1026183Y-2441644D01*
X-1026188Y-2441585D01*
X-1026197Y-2441528D01*
X-1026210Y-2441470D01*
X-1026227Y-2441414D01*
X-1026246Y-2441359D01*
X-1026270Y-2441306D01*
X-1026296Y-2441253D01*
X-1026326Y-2441203D01*
X-1026359Y-2441155D01*
X-1026395Y-2441109D01*
X-1026433Y-2441065D01*
X-1026475Y-2441023D01*
X-1026519Y-2440985D01*
X-1026565Y-2440949D01*
X-1026613Y-2440916D01*
X-1026663Y-2440886D01*
X-1026716Y-2440860D01*
X-1026769Y-2440836D01*
X-1026824Y-2440817D01*
X-1026880Y-2440800D01*
X-1026938Y-2440787D01*
X-1026995Y-2440778D01*
X-1027054Y-2440773D01*
X-1027112Y-2440771D01*
X-1028354Y-2440771D01*
X-1030629Y-2438908D02*
X-1030629Y-2444496D01*
X-1030629Y-2442633D02*
X-1033113Y-2440771D01*
X-1031716Y-2441857D02*
X-1033113Y-2444496D01*
X-1036066Y-2444496D02*
X-1037619Y-2444496D01*
X-1036066Y-2444496D02*
X-1036008Y-2444494D01*
X-1035949Y-2444489D01*
X-1035892Y-2444480D01*
X-1035834Y-2444467D01*
X-1035778Y-2444450D01*
X-1035723Y-2444431D01*
X-1035670Y-2444407D01*
X-1035617Y-2444381D01*
X-1035567Y-2444351D01*
X-1035519Y-2444318D01*
X-1035473Y-2444282D01*
X-1035429Y-2444244D01*
X-1035387Y-2444202D01*
X-1035349Y-2444158D01*
X-1035313Y-2444112D01*
X-1035280Y-2444064D01*
X-1035250Y-2444014D01*
X-1035224Y-2443961D01*
X-1035200Y-2443908D01*
X-1035181Y-2443853D01*
X-1035164Y-2443797D01*
X-1035151Y-2443739D01*
X-1035142Y-2443682D01*
X-1035137Y-2443623D01*
X-1035135Y-2443565D01*
X-1035135Y-2442012D01*
X-1035137Y-2441942D01*
X-1035143Y-2441873D01*
X-1035153Y-2441804D01*
X-1035166Y-2441736D01*
X-1035184Y-2441668D01*
X-1035205Y-2441602D01*
X-1035230Y-2441537D01*
X-1035258Y-2441473D01*
X-1035290Y-2441411D01*
X-1035325Y-2441351D01*
X-1035364Y-2441293D01*
X-1035406Y-2441238D01*
X-1035451Y-2441184D01*
X-1035499Y-2441134D01*
X-1035549Y-2441086D01*
X-1035603Y-2441041D01*
X-1035658Y-2440999D01*
X-1035716Y-2440960D01*
X-1035776Y-2440925D01*
X-1035838Y-2440893D01*
X-1035902Y-2440865D01*
X-1035967Y-2440840D01*
X-1036033Y-2440819D01*
X-1036101Y-2440801D01*
X-1036169Y-2440788D01*
X-1036238Y-2440778D01*
X-1036307Y-2440772D01*
X-1036377Y-2440770D01*
X-1036447Y-2440772D01*
X-1036516Y-2440778D01*
X-1036585Y-2440788D01*
X-1036653Y-2440801D01*
X-1036721Y-2440819D01*
X-1036787Y-2440840D01*
X-1036852Y-2440865D01*
X-1036916Y-2440893D01*
X-1036978Y-2440925D01*
X-1037038Y-2440960D01*
X-1037096Y-2440999D01*
X-1037151Y-2441041D01*
X-1037205Y-2441086D01*
X-1037255Y-2441134D01*
X-1037303Y-2441184D01*
X-1037348Y-2441238D01*
X-1037390Y-2441293D01*
X-1037429Y-2441351D01*
X-1037464Y-2441411D01*
X-1037496Y-2441473D01*
X-1037524Y-2441537D01*
X-1037549Y-2441602D01*
X-1037570Y-2441668D01*
X-1037588Y-2441736D01*
X-1037601Y-2441804D01*
X-1037611Y-2441873D01*
X-1037617Y-2441942D01*
X-1037619Y-2442012D01*
X-1037619Y-2442633D01*
X-1035135Y-2442633D01*
X-1039424Y-2440771D02*
X-1041286Y-2440771D01*
X-1040044Y-2438908D02*
X-1040044Y-2443565D01*
X-1040045Y-2443565D02*
X-1040047Y-2443623D01*
X-1040052Y-2443682D01*
X-1040061Y-2443739D01*
X-1040074Y-2443797D01*
X-1040091Y-2443853D01*
X-1040110Y-2443908D01*
X-1040134Y-2443961D01*
X-1040160Y-2444014D01*
X-1040190Y-2444064D01*
X-1040223Y-2444112D01*
X-1040259Y-2444158D01*
X-1040297Y-2444202D01*
X-1040339Y-2444244D01*
X-1040383Y-2444282D01*
X-1040429Y-2444318D01*
X-1040477Y-2444351D01*
X-1040528Y-2444381D01*
X-1040580Y-2444407D01*
X-1040633Y-2444431D01*
X-1040688Y-2444450D01*
X-1040744Y-2444467D01*
X-1040802Y-2444480D01*
X-1040859Y-2444489D01*
X-1040918Y-2444494D01*
X-1040976Y-2444496D01*
X-1041286Y-2444496D01*
X-1043686Y-2441392D02*
X-1045238Y-2441392D01*
X-1045315Y-2441394D01*
X-1045393Y-2441400D01*
X-1045469Y-2441409D01*
X-1045546Y-2441423D01*
X-1045621Y-2441440D01*
X-1045695Y-2441461D01*
X-1045769Y-2441486D01*
X-1045841Y-2441514D01*
X-1045911Y-2441546D01*
X-1045980Y-2441581D01*
X-1046047Y-2441620D01*
X-1046112Y-2441662D01*
X-1046175Y-2441707D01*
X-1046236Y-2441755D01*
X-1046294Y-2441806D01*
X-1046349Y-2441860D01*
X-1046402Y-2441917D01*
X-1046451Y-2441976D01*
X-1046498Y-2442038D01*
X-1046542Y-2442102D01*
X-1046582Y-2442168D01*
X-1046619Y-2442236D01*
X-1046653Y-2442306D01*
X-1046683Y-2442377D01*
X-1046709Y-2442450D01*
X-1046732Y-2442524D01*
X-1046751Y-2442599D01*
X-1046766Y-2442674D01*
X-1046778Y-2442751D01*
X-1046786Y-2442828D01*
X-1046790Y-2442905D01*
X-1046790Y-2442983D01*
X-1046786Y-2443060D01*
X-1046778Y-2443137D01*
X-1046766Y-2443214D01*
X-1046751Y-2443289D01*
X-1046732Y-2443364D01*
X-1046709Y-2443438D01*
X-1046683Y-2443511D01*
X-1046653Y-2443582D01*
X-1046619Y-2443652D01*
X-1046582Y-2443720D01*
X-1046542Y-2443786D01*
X-1046498Y-2443850D01*
X-1046451Y-2443912D01*
X-1046402Y-2443971D01*
X-1046349Y-2444028D01*
X-1046294Y-2444082D01*
X-1046236Y-2444133D01*
X-1046175Y-2444181D01*
X-1046112Y-2444226D01*
X-1046047Y-2444268D01*
X-1045980Y-2444307D01*
X-1045911Y-2444342D01*
X-1045841Y-2444374D01*
X-1045769Y-2444402D01*
X-1045695Y-2444427D01*
X-1045621Y-2444448D01*
X-1045546Y-2444465D01*
X-1045469Y-2444479D01*
X-1045393Y-2444488D01*
X-1045315Y-2444494D01*
X-1045238Y-2444496D01*
X-1043686Y-2444496D01*
X-1043686Y-2438908D01*
X-1045238Y-2438908D01*
X-1045308Y-2438910D01*
X-1045377Y-2438916D01*
X-1045446Y-2438926D01*
X-1045514Y-2438939D01*
X-1045582Y-2438957D01*
X-1045648Y-2438978D01*
X-1045713Y-2439003D01*
X-1045777Y-2439031D01*
X-1045839Y-2439063D01*
X-1045899Y-2439098D01*
X-1045957Y-2439137D01*
X-1046012Y-2439179D01*
X-1046066Y-2439224D01*
X-1046116Y-2439272D01*
X-1046164Y-2439322D01*
X-1046209Y-2439376D01*
X-1046251Y-2439431D01*
X-1046290Y-2439489D01*
X-1046325Y-2439549D01*
X-1046357Y-2439611D01*
X-1046385Y-2439675D01*
X-1046410Y-2439740D01*
X-1046431Y-2439806D01*
X-1046449Y-2439874D01*
X-1046462Y-2439942D01*
X-1046472Y-2440011D01*
X-1046478Y-2440080D01*
X-1046480Y-2440150D01*
X-1046478Y-2440220D01*
X-1046472Y-2440289D01*
X-1046462Y-2440358D01*
X-1046449Y-2440426D01*
X-1046431Y-2440494D01*
X-1046410Y-2440560D01*
X-1046385Y-2440625D01*
X-1046357Y-2440689D01*
X-1046325Y-2440751D01*
X-1046290Y-2440811D01*
X-1046251Y-2440869D01*
X-1046209Y-2440924D01*
X-1046164Y-2440978D01*
X-1046116Y-2441028D01*
X-1046066Y-2441076D01*
X-1046012Y-2441121D01*
X-1045957Y-2441163D01*
X-1045899Y-2441202D01*
X-1045839Y-2441237D01*
X-1045777Y-2441269D01*
X-1045713Y-2441297D01*
X-1045648Y-2441322D01*
X-1045582Y-2441343D01*
X-1045514Y-2441361D01*
X-1045446Y-2441374D01*
X-1045377Y-2441384D01*
X-1045308Y-2441390D01*
X-1045238Y-2441392D01*
X-1049782Y-2444496D02*
X-1051334Y-2444496D01*
X-1049782Y-2444496D02*
X-1049724Y-2444494D01*
X-1049665Y-2444489D01*
X-1049608Y-2444480D01*
X-1049550Y-2444467D01*
X-1049494Y-2444450D01*
X-1049439Y-2444431D01*
X-1049386Y-2444407D01*
X-1049333Y-2444381D01*
X-1049283Y-2444351D01*
X-1049235Y-2444318D01*
X-1049189Y-2444282D01*
X-1049145Y-2444244D01*
X-1049103Y-2444202D01*
X-1049065Y-2444158D01*
X-1049029Y-2444112D01*
X-1048996Y-2444064D01*
X-1048966Y-2444014D01*
X-1048940Y-2443961D01*
X-1048916Y-2443908D01*
X-1048897Y-2443853D01*
X-1048880Y-2443797D01*
X-1048867Y-2443739D01*
X-1048858Y-2443682D01*
X-1048853Y-2443623D01*
X-1048851Y-2443565D01*
X-1048851Y-2442012D01*
X-1048853Y-2441942D01*
X-1048859Y-2441873D01*
X-1048869Y-2441804D01*
X-1048882Y-2441736D01*
X-1048900Y-2441668D01*
X-1048921Y-2441602D01*
X-1048946Y-2441537D01*
X-1048974Y-2441473D01*
X-1049006Y-2441411D01*
X-1049041Y-2441351D01*
X-1049080Y-2441293D01*
X-1049122Y-2441238D01*
X-1049167Y-2441184D01*
X-1049215Y-2441134D01*
X-1049265Y-2441086D01*
X-1049319Y-2441041D01*
X-1049374Y-2440999D01*
X-1049432Y-2440960D01*
X-1049492Y-2440925D01*
X-1049554Y-2440893D01*
X-1049618Y-2440865D01*
X-1049683Y-2440840D01*
X-1049749Y-2440819D01*
X-1049817Y-2440801D01*
X-1049885Y-2440788D01*
X-1049954Y-2440778D01*
X-1050023Y-2440772D01*
X-1050093Y-2440770D01*
X-1050163Y-2440772D01*
X-1050232Y-2440778D01*
X-1050301Y-2440788D01*
X-1050369Y-2440801D01*
X-1050437Y-2440819D01*
X-1050503Y-2440840D01*
X-1050568Y-2440865D01*
X-1050632Y-2440893D01*
X-1050694Y-2440925D01*
X-1050754Y-2440960D01*
X-1050812Y-2440999D01*
X-1050867Y-2441041D01*
X-1050921Y-2441086D01*
X-1050971Y-2441134D01*
X-1051019Y-2441184D01*
X-1051064Y-2441238D01*
X-1051106Y-2441293D01*
X-1051145Y-2441351D01*
X-1051180Y-2441411D01*
X-1051212Y-2441473D01*
X-1051240Y-2441537D01*
X-1051265Y-2441602D01*
X-1051286Y-2441668D01*
X-1051304Y-2441736D01*
X-1051317Y-2441804D01*
X-1051327Y-2441873D01*
X-1051333Y-2441942D01*
X-1051335Y-2442012D01*
X-1051334Y-2442012D02*
X-1051334Y-2442633D01*
X-1048851Y-2442633D01*
X-1054663Y-2442323D02*
X-1056060Y-2442323D01*
X-1054663Y-2442322D02*
X-1054599Y-2442324D01*
X-1054534Y-2442330D01*
X-1054471Y-2442339D01*
X-1054408Y-2442352D01*
X-1054346Y-2442369D01*
X-1054285Y-2442390D01*
X-1054225Y-2442414D01*
X-1054167Y-2442442D01*
X-1054110Y-2442473D01*
X-1054056Y-2442507D01*
X-1054003Y-2442545D01*
X-1053953Y-2442586D01*
X-1053906Y-2442629D01*
X-1053861Y-2442675D01*
X-1053819Y-2442724D01*
X-1053780Y-2442775D01*
X-1053744Y-2442829D01*
X-1053711Y-2442884D01*
X-1053682Y-2442942D01*
X-1053656Y-2443000D01*
X-1053633Y-2443061D01*
X-1053614Y-2443122D01*
X-1053599Y-2443185D01*
X-1053588Y-2443249D01*
X-1053580Y-2443312D01*
X-1053576Y-2443377D01*
X-1053576Y-2443441D01*
X-1053580Y-2443506D01*
X-1053588Y-2443569D01*
X-1053599Y-2443633D01*
X-1053614Y-2443696D01*
X-1053633Y-2443757D01*
X-1053656Y-2443818D01*
X-1053682Y-2443876D01*
X-1053711Y-2443934D01*
X-1053744Y-2443989D01*
X-1053780Y-2444043D01*
X-1053819Y-2444094D01*
X-1053861Y-2444143D01*
X-1053906Y-2444189D01*
X-1053953Y-2444232D01*
X-1054003Y-2444273D01*
X-1054056Y-2444311D01*
X-1054110Y-2444345D01*
X-1054167Y-2444376D01*
X-1054225Y-2444404D01*
X-1054285Y-2444428D01*
X-1054346Y-2444449D01*
X-1054408Y-2444466D01*
X-1054471Y-2444479D01*
X-1054534Y-2444488D01*
X-1054599Y-2444494D01*
X-1054663Y-2444496D01*
X-1056060Y-2444496D01*
X-1056060Y-2441702D01*
X-1056058Y-2441644D01*
X-1056053Y-2441585D01*
X-1056044Y-2441528D01*
X-1056031Y-2441470D01*
X-1056014Y-2441414D01*
X-1055995Y-2441359D01*
X-1055971Y-2441306D01*
X-1055945Y-2441253D01*
X-1055915Y-2441203D01*
X-1055882Y-2441155D01*
X-1055846Y-2441109D01*
X-1055808Y-2441065D01*
X-1055766Y-2441023D01*
X-1055722Y-2440985D01*
X-1055676Y-2440949D01*
X-1055628Y-2440916D01*
X-1055578Y-2440886D01*
X-1055525Y-2440860D01*
X-1055472Y-2440836D01*
X-1055417Y-2440817D01*
X-1055361Y-2440800D01*
X-1055303Y-2440787D01*
X-1055246Y-2440778D01*
X-1055187Y-2440773D01*
X-1055129Y-2440771D01*
X-1053887Y-2440771D01*
X-1059446Y-2444496D02*
X-1060998Y-2444496D01*
X-1059446Y-2444496D02*
X-1059388Y-2444494D01*
X-1059329Y-2444489D01*
X-1059272Y-2444480D01*
X-1059214Y-2444467D01*
X-1059158Y-2444450D01*
X-1059103Y-2444431D01*
X-1059050Y-2444407D01*
X-1058997Y-2444381D01*
X-1058947Y-2444351D01*
X-1058899Y-2444318D01*
X-1058853Y-2444282D01*
X-1058809Y-2444244D01*
X-1058767Y-2444202D01*
X-1058729Y-2444158D01*
X-1058693Y-2444112D01*
X-1058660Y-2444064D01*
X-1058630Y-2444014D01*
X-1058604Y-2443961D01*
X-1058580Y-2443908D01*
X-1058561Y-2443853D01*
X-1058544Y-2443797D01*
X-1058531Y-2443739D01*
X-1058522Y-2443682D01*
X-1058517Y-2443623D01*
X-1058515Y-2443565D01*
X-1058515Y-2441702D01*
X-1058517Y-2441644D01*
X-1058522Y-2441585D01*
X-1058531Y-2441528D01*
X-1058544Y-2441470D01*
X-1058561Y-2441414D01*
X-1058580Y-2441359D01*
X-1058604Y-2441306D01*
X-1058630Y-2441253D01*
X-1058660Y-2441203D01*
X-1058693Y-2441155D01*
X-1058729Y-2441109D01*
X-1058767Y-2441065D01*
X-1058809Y-2441023D01*
X-1058853Y-2440985D01*
X-1058899Y-2440949D01*
X-1058947Y-2440916D01*
X-1058997Y-2440886D01*
X-1059050Y-2440860D01*
X-1059103Y-2440836D01*
X-1059158Y-2440817D01*
X-1059214Y-2440800D01*
X-1059272Y-2440787D01*
X-1059329Y-2440778D01*
X-1059388Y-2440773D01*
X-1059446Y-2440771D01*
X-1060998Y-2440771D01*
X-1060998Y-2445427D01*
X-1060996Y-2445485D01*
X-1060991Y-2445544D01*
X-1060982Y-2445601D01*
X-1060969Y-2445659D01*
X-1060952Y-2445715D01*
X-1060933Y-2445770D01*
X-1060909Y-2445823D01*
X-1060883Y-2445876D01*
X-1060853Y-2445926D01*
X-1060820Y-2445974D01*
X-1060784Y-2446020D01*
X-1060746Y-2446064D01*
X-1060704Y-2446106D01*
X-1060660Y-2446144D01*
X-1060614Y-2446180D01*
X-1060566Y-2446213D01*
X-1060516Y-2446243D01*
X-1060463Y-2446269D01*
X-1060410Y-2446293D01*
X-1060355Y-2446312D01*
X-1060299Y-2446329D01*
X-1060241Y-2446342D01*
X-1060184Y-2446351D01*
X-1060125Y-2446356D01*
X-1060067Y-2446358D01*
X-1060067Y-2446359D02*
X-1058825Y-2446359D01*
X-1063551Y-2443565D02*
X-1063551Y-2438908D01*
X-1063551Y-2443565D02*
X-1063553Y-2443623D01*
X-1063558Y-2443682D01*
X-1063567Y-2443739D01*
X-1063580Y-2443797D01*
X-1063597Y-2443853D01*
X-1063616Y-2443908D01*
X-1063640Y-2443961D01*
X-1063666Y-2444014D01*
X-1063696Y-2444064D01*
X-1063729Y-2444112D01*
X-1063765Y-2444158D01*
X-1063803Y-2444202D01*
X-1063845Y-2444244D01*
X-1063889Y-2444282D01*
X-1063935Y-2444318D01*
X-1063983Y-2444351D01*
X-1064033Y-2444381D01*
X-1064086Y-2444407D01*
X-1064139Y-2444431D01*
X-1064194Y-2444450D01*
X-1064250Y-2444467D01*
X-1064308Y-2444480D01*
X-1064365Y-2444489D01*
X-1064424Y-2444494D01*
X-1064482Y-2444496D01*
X-1067339Y-2444496D02*
X-1068891Y-2444496D01*
X-1067339Y-2444496D02*
X-1067281Y-2444494D01*
X-1067222Y-2444489D01*
X-1067165Y-2444480D01*
X-1067107Y-2444467D01*
X-1067051Y-2444450D01*
X-1066996Y-2444431D01*
X-1066943Y-2444407D01*
X-1066890Y-2444381D01*
X-1066840Y-2444351D01*
X-1066792Y-2444318D01*
X-1066746Y-2444282D01*
X-1066702Y-2444244D01*
X-1066660Y-2444202D01*
X-1066622Y-2444158D01*
X-1066586Y-2444112D01*
X-1066553Y-2444064D01*
X-1066523Y-2444014D01*
X-1066497Y-2443961D01*
X-1066473Y-2443908D01*
X-1066454Y-2443853D01*
X-1066437Y-2443797D01*
X-1066424Y-2443739D01*
X-1066415Y-2443682D01*
X-1066410Y-2443623D01*
X-1066408Y-2443565D01*
X-1066407Y-2443565D02*
X-1066407Y-2442012D01*
X-1066409Y-2441942D01*
X-1066415Y-2441873D01*
X-1066425Y-2441804D01*
X-1066438Y-2441736D01*
X-1066456Y-2441668D01*
X-1066477Y-2441602D01*
X-1066502Y-2441537D01*
X-1066530Y-2441473D01*
X-1066562Y-2441411D01*
X-1066597Y-2441351D01*
X-1066636Y-2441293D01*
X-1066678Y-2441238D01*
X-1066723Y-2441184D01*
X-1066771Y-2441134D01*
X-1066821Y-2441086D01*
X-1066875Y-2441041D01*
X-1066930Y-2440999D01*
X-1066988Y-2440960D01*
X-1067048Y-2440925D01*
X-1067110Y-2440893D01*
X-1067174Y-2440865D01*
X-1067239Y-2440840D01*
X-1067305Y-2440819D01*
X-1067373Y-2440801D01*
X-1067441Y-2440788D01*
X-1067510Y-2440778D01*
X-1067579Y-2440772D01*
X-1067649Y-2440770D01*
X-1067719Y-2440772D01*
X-1067788Y-2440778D01*
X-1067857Y-2440788D01*
X-1067925Y-2440801D01*
X-1067993Y-2440819D01*
X-1068059Y-2440840D01*
X-1068124Y-2440865D01*
X-1068188Y-2440893D01*
X-1068250Y-2440925D01*
X-1068310Y-2440960D01*
X-1068368Y-2440999D01*
X-1068423Y-2441041D01*
X-1068477Y-2441086D01*
X-1068527Y-2441134D01*
X-1068575Y-2441184D01*
X-1068620Y-2441238D01*
X-1068662Y-2441293D01*
X-1068701Y-2441351D01*
X-1068736Y-2441411D01*
X-1068768Y-2441473D01*
X-1068796Y-2441537D01*
X-1068821Y-2441602D01*
X-1068842Y-2441668D01*
X-1068860Y-2441736D01*
X-1068873Y-2441804D01*
X-1068883Y-2441873D01*
X-1068889Y-2441942D01*
X-1068891Y-2442012D01*
X-1068891Y-2442633D01*
X-1066407Y-2442633D01*
M02*
