M48
;GenerationSoftware,Autodesk,EAGLE,9.3.0*%
;CreationDate,2019-12-18T22:00:15Z*%
FMAT,2
ICI,OFF
METRIC,TZ,000.000
T7C0.350
T6C0.600
T5C0.889
T4C1.000
T3C1.016
T2C1.400
T1C2.000
%
G90
M71
T1
X-132334Y-269240
X-88646Y-269240
X-132334Y-246380
X-88646Y-246380
T2
X-129246Y-233580
X-129246Y-221080
X-124246Y-221080
X-124246Y-233580
T3
X-108966Y-246380
X-114046Y-246380
X-111506Y-246380
X-106426Y-246380
T4
X-80264Y-220218
X-134874Y-272542
X-80518Y-272542
X-87100Y-232240
X-100240Y-232240
X-134874Y-220472
T5
X-116400Y-237770
X-118940Y-240310
X-118940Y-237770
X-121480Y-240310
X-121480Y-237770
X-124020Y-240310
X-124020Y-237770
X-126560Y-240310
X-126560Y-237770
X-129100Y-240310
X-129100Y-237770
X-85920Y-265710
X-85920Y-263170
X-88460Y-265710
X-88460Y-263170
X-91000Y-265710
X-91000Y-263170
X-93540Y-265710
X-93540Y-263170
X-96080Y-265710
X-96080Y-263170
X-98620Y-265710
X-98620Y-263170
X-101160Y-265710
X-101160Y-263170
X-103700Y-265710
X-103700Y-263170
X-106240Y-265710
X-106240Y-263170
X-108780Y-265710
X-108780Y-263170
X-111320Y-265710
X-111320Y-263170
X-113860Y-265710
X-113860Y-263170
X-116400Y-265710
X-116400Y-263170
X-118940Y-265710
X-118940Y-263170
X-121480Y-265710
X-121480Y-263170
X-124020Y-265710
X-124020Y-263170
X-126560Y-265710
X-126560Y-263170
X-129100Y-265710
X-129100Y-263170
X-85920Y-240310
X-85920Y-237770
X-88460Y-240310
X-88460Y-237770
X-91000Y-240310
X-91000Y-237770
X-93540Y-240310
X-93540Y-237770
X-96080Y-240310
X-96080Y-237770
X-98620Y-240310
X-98620Y-237770
X-101160Y-240310
X-101160Y-237770
X-103700Y-240310
X-103700Y-237770
X-106240Y-240310
X-106240Y-237770
X-108780Y-240310
X-108780Y-237770
X-111320Y-240310
X-111320Y-237770
X-113860Y-240310
X-113860Y-237770
X-116400Y-240310
T6
X-90170Y-234950
X-92170Y-234950
X-94170Y-234950
X-96170Y-234950
X-115316Y-233680
X-108966Y-233680
T7
X-83312Y-255270
X-83312Y-250190
X-108966Y-248920
X-96266Y-232410
X-103632Y-242570
X-115316Y-235966
X-129286Y-235966
X-106426Y-248920
X-115062Y-252476
X-109728Y-252476
X-117348Y-231648
X-83312Y-245110
X-113792Y-242824
M30